<?xml version="1.0" encoding="utf-8"?>
<!-- Generator: Adobe Illustrator 15.0.0, SVG Export Plug-In . SVG Version: 6.00 Build 0)  -->
<!DOCTYPE svg PUBLIC "-//W3C//DTD SVG 1.1//EN" "http://www.w3.org/Graphics/SVG/1.1/DTD/svg11.dtd">
<svg version="1.1" id="Layer_2" xmlns="http://www.w3.org/2000/svg" xmlns:xlink="http://www.w3.org/1999/xlink" x="0px" y="0px"
	 width="207.6px" height="70.9px" viewBox="0 0 207.6 70.9" enable-background="new 0 0 207.6 70.9" xml:space="preserve">
<g>
	<path fill="#3FA2F7" d="M0.4,35.7h19.7v-6.4c0,0-11.899,0-12.399,0V20.6c0.5,0,11.899,0,11.899,0v-6.4c0,0-11.399,0-11.899,0V7
		C8.3,7,20.1,7,20.1,7V0.6H0.4V35.7z"/>
	<path fill="#3FA2F7" d="M47.1,5.5c-1.6-1.5-3.7-2.7-6-3.6C38.8,1,36.2,0.6,33.5,0.6H23.3v35.1h10.2c2.6,0,5-0.3,7-0.9
		c2-0.6,3.899-1.699,5.6-3.1c2-1.6,3.601-3.7,4.7-6c1.1-2.4,1.7-4.9,1.7-7.4s-0.5-5-1.4-7.1C50,8.9,48.7,7.1,47.1,5.5z M43.9,22.8
		C43.3,24.3,42.4,25.6,41.2,26.6c-1,0.899-2.301,1.6-3.7,2c-1.4,0.399-3.2,0.6-5.4,0.6c0,0-1.1,0-1.5,0V7c0.4,0,1.5,0,1.5,0
		C34.2,7,36,7.2,37.4,7.6C38.8,8,40,8.7,41.1,9.7c1.101,1,2,2.3,2.7,3.7c0.6,1.5,1,3,1,4.6C44.8,19.8,44.5,21.3,43.9,22.8z"/>
	<path fill="#3FA2F7" d="M153.3-0.1L138,35.7h7.8c0,0,3-7,3.1-7.3H162.7c0.1,0.3,3,7.3,3,7.3h7.8L158.8-0.1H153.3z M151.4,22.4
		C151.7,21.7,155.5,12.2,156,11c0.5,1.2,4.1,10.7,4.399,11.4H151.4z"/>
	<path fill="#3FA2F7" d="M199.9,0.6c0,0,0,21.3,0,22.8C198.9,22.3,179.2-0.1,179.2-0.1H174.1V35.8h7.3c0,0,0-21.399,0-22.899
		c1,1.1,20.7,23.5,20.7,23.5h5.101V0.6H199.9z"/>
	<path fill="#3FA2F7" d="M84.9,0.6h-7.3v35.1h18v-6.4c0,0-10.1,0-10.7,0C84.9,28.7,84.9,0.6,84.9,0.6z"/>
	<path fill="#3FA2F7" d="M126.6,0c0,0-9.1,21-9.6,22.2C116.5,21,107.7,0,107.7,0H102.6l-6.5,35.7h7.4c0,0,3.1-18.7,3.399-20.5
		c0.7,1.7,8.9,20.9,8.9,20.9h2.2c0,0,8.399-19.2,9.2-20.9c0.3,1.8,3,20.5,3,20.5h7.399L131.7,0H126.6z"/>
	<path fill="#3FA2F7" d="M54.7,35.7H74.4v-6.4c0,0-11.899,0-12.399,0V20.6c0.6,0,11.899,0,11.899,0v-6.4c0,0-11.399,0-11.899,0V7
		C62.6,7,74.4,7,74.4,7V0.6H54.7V35.7z"/>
</g>
<g>
	<g>
		<path fill="#3FA2F7" d="M0,48.6h9.2v2.8H3.4v3.5h5.4v2.8H3.4v6.1H0V48.6z"/>
		<path fill="#3FA2F7" d="M15.3,48.6v15.1h-3.4V48.6H15.3z"/>
		<path fill="#3FA2F7" d="M18.2,63.8V48.6h4l3.1,5.5c0.9,1.6,1.8,3.5,2.5,5.199l0,0c-0.2-2-0.3-4-0.3-6.3V48.6h3.1v15.1H27l-3.2-5.8
			c-0.9-1.601-1.9-3.601-2.6-5.3H21.1c0.101,2,0.2,4.199,0.2,6.6v4.6H18.2z"/>
		<path fill="#3FA2F7" d="M37.2,59.9L36.1,63.8h-3.5L37.2,48.7h4.5L46.4,63.8H42.7L41.5,59.9H37.2z M41.1,57.3L40.2,54.1
			c-0.2-0.9-0.5-2-0.7-2.9H39.4C39.2,52.1,39,53.2,38.7,54.1L37.8,57.3H41.1z"/>
		<path fill="#3FA2F7" d="M48.4,63.8V48.6h4l3.101,5.5c0.899,1.6,1.8,3.5,2.5,5.199l0,0c-0.2-2-0.3-4-0.3-6.3V48.6H61v15.1H57.4
			L54.2,57.9C53.3,56.3,52.3,54.3,51.6,52.6h-0.1c0.1,2,0.2,4.199,0.2,6.6v4.6H48.4z"/>
		<path fill="#3FA2F7" d="M75,63.4c-0.601,0.3-2,0.7-3.9,0.7C65.9,64.1,63.2,60.8,63.2,56.5c0-5.2,3.699-8,8.3-8
			c1.8,0,3.1,0.4,3.7,0.7l-0.7,2.7C73.8,51.6,72.9,51.3,71.6,51.3c-2.7,0-4.8,1.601-4.8,5c0,3,1.8,4.9,4.8,4.9
			c1.101,0,2.2-0.2,2.9-0.5L75,63.4z"/>
		<path fill="#3FA2F7" d="M80.7,48.6v15.1h-3.4V48.6H80.7z"/>
		<path fill="#3FA2F7" d="M87.2,59.9L86.1,63.8h-3.5L87.2,48.7h4.5L96.4,63.8H92.7L91.5,59.9H87.2z M91.1,57.3L90.2,54.1
			c-0.2-0.9-0.5-2-0.7-2.9H89.4C89.2,52.1,89,53.2,88.7,54.1L87.8,57.3H91.1z"/>
		<path fill="#3FA2F7" d="M98.5,48.6h3.399v12.3h6V63.8H98.5V48.6z"/>
	</g>
	<path fill="#3FA2F7" d="M114.6,60.3c0.9,0.5,2.3,0.9,3.8,0.9c1.601,0,2.4-0.7,2.4-1.7c0-0.899-0.7-1.5-2.5-2.1
		c-2.5-0.9-4.2-2.3-4.2-4.5c0-2.601,2.2-4.5,5.7-4.5c1.7,0,3,0.3,3.9,0.8l-0.801,2.7c-0.6-0.3-1.699-0.7-3.1-0.7
		c-1.5,0-2.2,0.7-2.2,1.5c0,1,0.8,1.4,2.8,2.2c2.7,1,3.9,2.399,3.9,4.5c0,2.5-1.9,4.7-6.1,4.7c-1.7,0-3.4-0.5-4.301-0.9L114.6,60.3z
		"/>
	<path fill="#3FA2F7" d="M135.6,57.4H130V61h6.2v2.8H126.6V48.6h9.3v2.8H130v3.1h5.6V57.4z"/>
	<path fill="#3FA2F7" d="M138.6,48.9c1.101-0.2,2.7-0.3,4.601-0.3c2.199,0,3.8,0.3,4.899,1.199c0.9,0.7,1.4,1.801,1.4,3.2
		c0,1.9-1.4,3.2-2.7,3.7v0.1c1.1,0.4,1.6,1.4,2,2.801c0.5,1.699,0.9,3.699,1.2,4.3h-3.5c-0.2-0.4-0.601-1.7-1-3.5
		c-0.4-1.9-1.101-2.4-2.5-2.4h-1v6h-3.4V48.9z M142,55.4h1.3c1.7,0,2.7-0.9,2.7-2.2c0-1.4-0.9-2.1-2.5-2.1c-0.8,0-1.3,0-1.5,0.1
		V55.4z"/>
	<path fill="#3FA2F7" d="M155.3,63.8l-4.9-15.1h3.801l1.8,6.4c0.5,1.8,1,3.5,1.3,5.399h0.1c0.4-1.8,0.9-3.6,1.4-5.3l1.9-6.5h3.6
		l-5.1,15.1H155.3z"/>
	<path fill="#3FA2F7" d="M169.5,48.6v15.1h-3.4V48.6H169.5z"/>
	<path fill="#3FA2F7" d="M183.5,63.4c-0.601,0.3-2,0.7-3.9,0.7c-5.2,0-7.899-3.301-7.899-7.601c0-5.2,3.699-8,8.3-8
		c1.8,0,3.1,0.4,3.7,0.7l-0.7,2.7c-0.7-0.3-1.601-0.601-2.9-0.601c-2.7,0-4.8,1.601-4.8,5c0,3,1.8,4.9,4.8,4.9
		c1.101,0,2.2-0.2,2.9-0.5L183.5,63.4z"/>
	<path fill="#3FA2F7" d="M194.8,57.4h-5.6V61h6.199v2.8h-9.6V48.6h9.3v2.8H189.2v3.1h5.6V57.4z"/>
	<path fill="#3FA2F7" d="M197.9,60.3c0.9,0.5,2.301,0.9,3.801,0.9c1.6,0,2.399-0.7,2.399-1.7c0-0.899-0.7-1.5-2.5-2.1
		c-2.5-0.9-4.2-2.3-4.2-4.5c0-2.601,2.2-4.5,5.7-4.5c1.7,0,3,0.3,3.9,0.8l-0.8,2.7c-0.601-0.3-1.7-0.7-3.101-0.7
		c-1.5,0-2.2,0.7-2.2,1.5c0,1,0.801,1.4,2.801,2.2c2.699,1,3.899,2.399,3.899,4.5c0,2.5-1.899,4.7-6.1,4.7c-1.7,0-3.4-0.5-4.3-0.9
		L197.9,60.3z"/>
</g>
<rect x="0.4" y="41.7" fill="#3FA2F7" width="206.801" height="1.4"/>
</svg>
