<?xml version="1.0" encoding="utf-8"?>
<!-- Generator: Adobe Illustrator 16.0.0, SVG Export Plug-In . SVG Version: 6.00 Build 0)  -->
<!DOCTYPE svg PUBLIC "-//W3C//DTD SVG 1.1//EN" "http://www.w3.org/Graphics/SVG/1.1/DTD/svg11.dtd">
<svg version="1.1" id="Layer_2" xmlns="http://www.w3.org/2000/svg" xmlns:xlink="http://www.w3.org/1999/xlink" x="0px" y="0px"
	 width="207.6px" height="70.9px" viewBox="0 0 207.6 70.9" style="enable-background:new 0 0 207.6 70.9;" xml:space="preserve">
<g>
	<path style="fill:#840100;" d="M0.4,35.7h19.7v-6.4c0,0-11.9,0-12.4,0v-8.7c0.5,0,11.9,0,11.9,0v-6.4c0,0-11.4,0-11.9,0V7
		c0.6,0,12.4,0,12.4,0V0.6H0.4V35.7z"/>
	<path style="fill:#840100;" d="M47.1,5.5c-1.6-1.5-3.7-2.7-6-3.6c-2.3-0.9-4.9-1.3-7.6-1.3H23.3v35.1h10.2c2.6,0,5-0.3,7-0.9
		c2-0.6,3.9-1.7,5.6-3.1c2-1.6,3.6-3.7,4.7-6c1.1-2.4,1.7-4.9,1.7-7.4s-0.5-5-1.4-7.1C50,8.9,48.7,7.1,47.1,5.5z M43.9,22.8
		c-0.6,1.5-1.5,2.8-2.7,3.8c-1,0.9-2.3,1.6-3.7,2c-1.4,0.4-3.2,0.6-5.4,0.6c0,0-1.1,0-1.5,0V7c0.4,0,1.5,0,1.5,0
		c2.1,0,3.9,0.2,5.3,0.6c1.4,0.4,2.6,1.1,3.7,2.1c1.1,1,2,2.3,2.7,3.7c0.6,1.5,1,3,1,4.6C44.8,19.8,44.5,21.3,43.9,22.8z"/>
	<path style="fill:#840100;" d="M153.3-0.1L138,35.7h7.8c0,0,3-7,3.1-7.3h13.8c0.1,0.3,3,7.3,3,7.3h7.8L158.8-0.1H153.3z
		 M151.4,22.4c0.3-0.7,4.1-10.2,4.6-11.4c0.5,1.2,4.1,10.7,4.4,11.4H151.4z"/>
	<path style="fill:#840100;" d="M199.9,0.6c0,0,0,21.3,0,22.8c-1-1.1-20.7-23.5-20.7-23.5h-5.1v35.9h7.3c0,0,0-21.4,0-22.9
		c1,1.1,20.7,23.5,20.7,23.5h5.1V0.6H199.9z"/>
	<path style="fill:#840100;" d="M84.9,0.6h-7.3v35.1h18v-6.4c0,0-10.1,0-10.7,0C84.9,28.7,84.9,0.6,84.9,0.6z"/>
	<path style="fill:#840100;" d="M126.6,0c0,0-9.1,21-9.6,22.2C116.5,21,107.7,0,107.7,0h-5.1l-6.5,35.7h7.4c0,0,3.1-18.7,3.4-20.5
		c0.7,1.7,8.9,20.9,8.9,20.9h2.2c0,0,8.4-19.2,9.2-20.9c0.3,1.8,3,20.5,3,20.5h7.4L131.7,0H126.6z"/>
	<path style="fill:#840100;" d="M54.7,35.7h19.7v-6.4c0,0-11.9,0-12.4,0v-8.7c0.6,0,11.9,0,11.9,0v-6.4c0,0-11.4,0-11.9,0V7
		c0.6,0,12.4,0,12.4,0V0.6H54.7V35.7z"/>
</g>
<g>
	<g>
		<path d="M0,48.6h9.2v2.8H3.4v3.5h5.4v2.8H3.4v6.1H0V48.6z"/>
		<path d="M15.3,48.6v15.1h-3.4V48.6H15.3z"/>
		<path d="M18.2,63.8V48.6h4l3.1,5.5c0.9,1.6,1.8,3.5,2.5,5.2h0c-0.2-2-0.3-4-0.3-6.3v-4.4h3.1v15.1h-3.6l-3.2-5.8
			c-0.9-1.6-1.9-3.6-2.6-5.3h-0.1c0.1,2,0.2,4.2,0.2,6.6v4.6H18.2z"/>
		<path d="M37.2,59.9l-1.1,3.9h-3.5l4.6-15.1h4.5l4.7,15.1h-3.7l-1.2-3.9H37.2z M41.1,57.3l-0.9-3.2c-0.2-0.9-0.5-2-0.7-2.9h-0.1
			c-0.2,0.9-0.4,2-0.7,2.9l-0.9,3.2H41.1z"/>
		<path d="M48.4,63.8V48.6h4l3.1,5.5c0.9,1.6,1.8,3.5,2.5,5.2h0c-0.2-2-0.3-4-0.3-6.3v-4.4H61v15.1h-3.6l-3.2-5.8
			c-0.9-1.6-1.9-3.6-2.6-5.3h-0.1c0.1,2,0.2,4.2,0.2,6.6v4.6H48.4z"/>
		<path d="M75,63.4c-0.6,0.3-2,0.7-3.9,0.7c-5.2,0-7.9-3.3-7.9-7.6c0-5.2,3.7-8,8.3-8c1.8,0,3.1,0.4,3.7,0.7l-0.7,2.7
			c-0.7-0.3-1.6-0.6-2.9-0.6c-2.7,0-4.8,1.6-4.8,5c0,3,1.8,4.9,4.8,4.9c1.1,0,2.2-0.2,2.9-0.5L75,63.4z"/>
		<path d="M80.7,48.6v15.1h-3.4V48.6H80.7z"/>
		<path d="M87.2,59.9l-1.1,3.9h-3.5l4.6-15.1h4.5l4.7,15.1h-3.7l-1.2-3.9H87.2z M91.1,57.3l-0.9-3.2c-0.2-0.9-0.5-2-0.7-2.9h-0.1
			c-0.2,0.9-0.4,2-0.7,2.9l-0.9,3.2H91.1z"/>
		<path d="M98.5,48.6h3.4v12.3h6v2.9h-9.4V48.6z"/>
	</g>
	<path d="M114.6,60.3c0.9,0.5,2.3,0.9,3.8,0.9c1.6,0,2.4-0.7,2.4-1.7c0-0.9-0.7-1.5-2.5-2.1c-2.5-0.9-4.2-2.3-4.2-4.5
		c0-2.6,2.2-4.5,5.7-4.5c1.7,0,3,0.3,3.9,0.8l-0.8,2.7c-0.6-0.3-1.7-0.7-3.1-0.7c-1.5,0-2.2,0.7-2.2,1.5c0,1,0.8,1.4,2.8,2.2
		c2.7,1,3.9,2.4,3.9,4.5c0,2.5-1.9,4.7-6.1,4.7c-1.7,0-3.4-0.5-4.3-0.9L114.6,60.3z"/>
	<path d="M135.6,57.4H130V61h6.2v2.8h-9.6V48.6h9.3v2.8H130v3.1h5.6V57.4z"/>
	<path d="M138.6,48.9c1.1-0.2,2.7-0.3,4.6-0.3c2.2,0,3.8,0.3,4.9,1.2c0.9,0.7,1.4,1.8,1.4,3.2c0,1.9-1.4,3.2-2.7,3.7v0.1
		c1.1,0.4,1.6,1.4,2,2.8c0.5,1.7,0.9,3.7,1.2,4.3h-3.5c-0.2-0.4-0.6-1.7-1-3.5c-0.4-1.9-1.1-2.4-2.5-2.4h-1v6h-3.4V48.9z M142,55.4
		h1.3c1.7,0,2.7-0.9,2.7-2.2c0-1.4-0.9-2.1-2.5-2.1c-0.8,0-1.3,0-1.5,0.1V55.4z"/>
	<path d="M155.3,63.8l-4.9-15.1h3.8l1.8,6.4c0.5,1.8,1,3.5,1.3,5.4h0.1c0.4-1.8,0.9-3.6,1.4-5.3l1.9-6.5h3.6l-5.1,15.1H155.3z"/>
	<path d="M169.5,48.6v15.1h-3.4V48.6H169.5z"/>
	<path d="M183.5,63.4c-0.6,0.3-2,0.7-3.9,0.7c-5.2,0-7.9-3.3-7.9-7.6c0-5.2,3.7-8,8.3-8c1.8,0,3.1,0.4,3.7,0.7l-0.7,2.7
		c-0.7-0.3-1.6-0.6-2.9-0.6c-2.7,0-4.8,1.6-4.8,5c0,3,1.8,4.9,4.8,4.9c1.1,0,2.2-0.2,2.9-0.5L183.5,63.4z"/>
	<path d="M194.8,57.4h-5.6V61h6.2v2.8h-9.6V48.6h9.3v2.8h-5.9v3.1h5.6V57.4z"/>
	<path d="M197.9,60.3c0.9,0.5,2.3,0.9,3.8,0.9c1.6,0,2.4-0.7,2.4-1.7c0-0.9-0.7-1.5-2.5-2.1c-2.5-0.9-4.2-2.3-4.2-4.5
		c0-2.6,2.2-4.5,5.7-4.5c1.7,0,3,0.3,3.9,0.8l-0.8,2.7c-0.6-0.3-1.7-0.7-3.1-0.7c-1.5,0-2.2,0.7-2.2,1.5c0,1,0.8,1.4,2.8,2.2
		c2.7,1,3.9,2.4,3.9,4.5c0,2.5-1.9,4.7-6.1,4.7c-1.7,0-3.4-0.5-4.3-0.9L197.9,60.3z"/>
</g>
<rect x="0.4" y="41.7" style="fill:#840100;" width="206.8" height="1.4"/>
</svg>
