<?xml version="1.0" encoding="utf-8"?>
<!-- Generator: Adobe Illustrator 15.0.0, SVG Export Plug-In . SVG Version: 6.00 Build 0)  -->
<!DOCTYPE svg PUBLIC "-//W3C//DTD SVG 1.1//EN" "http://www.w3.org/Graphics/SVG/1.1/DTD/svg11.dtd">
<svg version="1.1" id="Layer_1" xmlns="http://www.w3.org/2000/svg" xmlns:xlink="http://www.w3.org/1999/xlink" x="0px" y="0px"
	 width="17px" height="17px" viewBox="0 0 17 17" enable-background="new 0 0 17 17" xml:space="preserve">
<title>Instagram</title>
<desc>Created with Sketch.</desc>
<path fill="#3FA2F7" d="M13.472-0.02H3.53c-1.961,0-3.551,1.59-3.551,3.551v9.942c0,1.959,1.59,3.547,3.551,3.547h9.941
	c1.959,0,3.549-1.588,3.549-3.547V3.531C17.021,1.57,15.431-0.02,13.472-0.02z M5.661,13.473H3.53V5.661h2.13V13.473z M4.595,4.76
	c-0.686,0-1.243-0.562-1.243-1.253s0.558-1.252,1.243-1.252c0.686,0,1.243,0.561,1.243,1.252S5.281,4.76,4.595,4.76z M14.181,13.473
	H12.05v-3.98c0-2.392-2.84-2.21-2.84,0v3.98H7.08V5.661h2.13v1.253c0.993-1.837,4.971-1.973,4.971,1.757V13.473z"/>
</svg>
